<!-- <?xml version="1.0" encoding="utf-8"?>

<!DOCTYPE svg PUBLIC "-//W3C//DTD SVG 1.1//EN" "http://www.w3.org/Graphics/SVG/1.1/DTD/svg11.dtd"> -->
<svg version="1.1" id="Layer_1" xmlns="http://www.w3.org/2000/svg" xmlns:xlink="http://www.w3.org/1999/xlink" x="0px" y="0px"
	 viewBox="-36.0657 216.1066 1998.1061 647.9526" enable-background="new -36.0657 216.1066 1998.1061 647.9526"
	 xml:space="preserve">
<g>
	<path d="M709.53,264.34c13.58-2.21,27.2-4.74,40.99-4.93c-39.76,6.14-79.08,15.85-116.64,30.37
		c-34.64,13.38-67.35,31.67-96.9,54.15c-27.5,20.57-52.13,44.58-78.26,66.8c-29.41,24.42-61.56,45.37-94.79,64.19
		c-71.26,40.01-147.44,70.58-224.97,96.07c-33.43,10.83-67.14,20.86-101.21,29.5c-5.03,1.13-9.96,2.87-15.13,3.19
		c19.43-4.74,38.52-10.83,57.7-16.49c81.24-24.99,161.18-55.1,236.65-94.4c53.26-27.86,104.34-60.56,149.12-100.84
		c10.67-9.24,20.29-19.61,31.1-28.71C557.02,311.4,631.92,278.4,709.53,264.34z"/>
	<path d="M897.98,270.67c86.16-5.65,172.66,1.03,258.01,13.1c22.3101,1.71,43.15,10.28,64.16,17.26
		c65.83,22.58,130.96,47.42,194.1,76.73c-53.92-4.82-108.1-6.41-162.23-6.55c-64.6901-0.29-129.37,1.6-193.97,4.79
		c-15.38,0.85-30.9401,1.34-46.15-1.48c-12.08-2.24-23.9901-6.84-33.45-14.85c-25.71-23.05-50.13-47.68-77.9-68.31
		c-4.8-3.78-10.78-6.37-14.22-11.62c-1.33-1.75-1.57-4.62,0.46-5.95C890,271.45,894.15,271.12,897.98,270.67z"/>
	<path d="M760.04,286.34c21.9901-2.26,44.53-1.2,65.82,5.1c28.32,8.07,53.87,24.39,74.66,45.07c17.47,17.24,31.66,37.54,43.53,58.95
		c-85.14,3.45-170.29,6.6-255.43,10.1c-11.7-25.46-26.81-49.69-46.73-69.54c-3.28-3.46-7.82-6.2-9.28-10.99
		c-0.26-3.77,3.9-5.39,6.69-6.78c14.39-6.05,29.19-11.05,44.09-15.67C708.4,294.98,733.98,288.89,760.04,286.34z"/>
	<path d="M593.41,339.51c5.61-2.77,11.09-6.65,17.55-6.9c4.95,0.52,8.7599,4.18,12.49,7.15c10.93,9.85,19.43,22.03,27.5,34.24
		c4.49,6.96,8.77,14.05,12.72,21.34c1.34,2.65,2.87,5.89,1.53,8.84c-1.98,3.03-6.05,2.68-9.21,2.77
		c-23.34-0.31-46.68,0.1-70.01,0.79c-22.33,0.99-44.72,2.2-66.81,5.79c-8.04,1.4-16.19,2.92-23.67,6.31
		c17.02-29.05,43.58-51.39,72.78-67.56C576.44,347.61,584.98,343.67,593.41,339.51z"/>
	<path d="M1135.01,390.45c51.01-1.24,102.02-2.56,152.99-4.92c55-1.87,110.15-1.09,164.97,3.99
		c47.42,4.15,94.76,9.21,141.9501,15.43c24.89,3.35,49.75,6.95,74.38,11.88c36.49,7.09,73.3899,14.32,107.61,29.32
		c10.2899,4.58,20.35,9.74,29.89,15.73c-19.42-7.49-39.3401-13.88-59.8101-17.79c-8.7-1.78-17.55-2.65-26.25-4.38
		c-9.88-0.82-19.8,0.08-29.6899-0.04c-30.76,0.24-61.6001,1.21-92.1101,5.39c-3.98,0.63-8.6,1.35-11.08,4.89
		c-2.2,3.49-0.54,7.76,1.04,11.15c10.58,18.64,20.0599,37.88,29.88,56.93c6.72,13.43,13.73,26.72,20.24,40.25
		c-26.71-42.57-63.55-78.63-106.24-105.08c-7.3-4.49-14.76-8.75-22.51-12.41c-10.54-4.85-21.9401-7.5-33.36-9.31
		c-21.9701-2.84-43.64-7.53-65.48-11.14c-104.16-18.05-209.76-28.63-315.5-28.79C1108.9399,390.64,1121.98,390.83,1135.01,390.45z"
		/>
	<path d="M1394.95,448.24c16.5,3.46,33.13,9.46,45.8,20.96c7.34,6.53,12.76,15.24,15.1,24.8c1.55,6.28,0.74,13.33-3.15,18.63
		c-4.7,6.48-12.21,10.24-19.6499,12.66c6.8199-5.2,13.85-11.08,16.71-19.47c2.76-7.84,0.1799-16.49-4.62-22.95
		c-7.5-10.24-18.14-17.62-28.92-24.03C1409.37,454.84,1402.25,451.32,1394.95,448.24z"/>
	<path d="M1712.1801,448.18c4.58-0.57,9.23-0.8,13.84-0.3c21.77,4.39,43.79,8.17,64.95,15.13c6.1801,2.04,12.37,4.53,17.42,8.75
		c6.74,5.31,11.0599,13.04,13.83,21.05c4.89,14.35,10.01,28.66,13.54,43.42c1.4299,6.3,3.0599,13.33-0.22,19.35
		c-1.89,3.87-6.37,5.78-10.52,5.51c-41.59-3.16-83.29-4.8-124.99-5.47c-10.6801-0.44-21.72,1.02-32.01-2.53
		c-11.5601-3.98-19.98-13.54-26.79-23.27c-11.15-16.22-21.1-33.24-30.36-50.58c-2.87-5.86-5.55-12.58-3.88-19.17
		c1.3101-4.83,6.49-6.98,11.0701-7.29C1649.34,449.7,1680.8199,449.73,1712.1801,448.18z"/>
	<path d="M1369.23,449.26c16.28-1.3,31.6901,6.07,45.3201,14.19c8.7,5.3,17.1399,11.54,23.0299,19.99
		c4.79,6.86,7.25,15.58,5.7001,23.9c-2.25,7.49-9.0901,12.67-16.36,14.84c-9.28,2.74-19.2301,2.36-28.65,0.56
		c-22.29-4.32-41.55-20.5-50.5801-41.18c-2.8099-6.21-3.23-14.02,1.25-19.56C1354.05,455.79,1360.89,450,1369.23,449.26z"/>
	<path d="M1475.46,449.69c16.11-2.74,32.26,3.58,45.3501,12.63c8.3799,5.73,15.7999,12.73,22.6599,20.17
		c6.28,6.46,10.29,14.88,12.5,23.55c1.54,6.97,1.64,15.06-2.9399,20.97c-5.4,6.82-14.73,9.02-23.04,8.84
		c-22.3-2.12-43.47-14.2-56.63-32.33c-4.79-6.51-8.65-13.7-11.5499-21.23c-2.3501-6.92-2.9901-14.77-0.0701-21.62
		C1464.13,455.03,1469.4399,450.79,1475.46,449.69z"/>
	<path d="M1512.9399,452.12c14.2001,7.71,28.39,15.8,40.5901,26.52c6.14,5.57,12.0399,11.82,15.2899,19.58
		c2.51,5.8,2.8,12.76-0.1,18.47c-2.2,4.69-6.1,8.25-10.12,11.38c4.1801-7.6,5.2001-16.83,2.4301-25.08
		c-4.26-13.2-13.9601-23.71-24.03-32.84C1529.5601,463.38,1521.16,457.84,1512.9399,452.12z"/>
	<path d="M1826.36,482.31c0.4-0.22,1.21-0.65,1.62-0.87c3.9401,0.84,6.99,3.82,9.8301,6.53c8.25,8.74,13.98,19.5,18.83,30.41
		c3.21,7.61,6.77,15.24,7.92,23.5c0.35,3.54,0.6799,7.74-1.9401,10.55c-1.66,1.07-3.46-0.27-4.6899-1.32
		c-10.7101-10.55-16.05-25.04-22.8101-38.17c-3.5599-7.63-7.41-15.24-9.4-23.46C1825.36,487.15,1824.66,484.28,1826.36,482.31z"/>
	<path d="M1107.65,508.35c18.03-3.23,37.1-3.09,54.35,3.64c15.15,5.69,28.24,16.06,38.33,28.61
		c12.5801,15.64,20.9701,34.28,26.55,53.46c6,21.06,8.88,43.01,8.58,64.9c-1.12,19.5-3.71,38.99-8.87,57.86
		c-4.88,17.7-12.1599,34.98-23.2999,49.69c-9.79,12.99-22.8301,23.67-37.9,29.94c-17.08,7.23-36.17,8.96-54.47,6.57
		c15.9299-1.54,31.71-6.69,44.6-16.36c14.61-10.8,25.13-26.28,32.33-42.79c9.3301-21.46,14-44.64,16.7101-67.78
		c2.9299-22.54,2.5099-45.42-0.3101-67.94c-2.46-18.57-6.99-37.11-15.63-53.84c-7.42-14.37-18.3199-27.22-32.4-35.41
		C1141.6899,510.19,1124.4,507.27,1107.65,508.35z"/>
	<path d="M505,558.48c8.36,14.35,17.35,28.56,29.12,40.41c6.86,6.78,14.82,12.61,23.88,16.08c9.52,3.76,19.82,4.71,29.94,5.44
		c122.66,7.45,245.35,14.41,368.02,21.58c7.44,0.69,14.97,0.32,22.35,1.63c-58.11-1.29-116.25-1.84-174.37-2.9
		c-74.65-1.06-149.29-2.33-223.94-3.4c-9.66-0.41-19.49,0.49-29-1.55c-14.27-3.2-25.4-15.06-29.82-28.7
		C515.86,590.85,510.07,574.77,505,558.48z"/>
	<path d="M592.99,660.06c4.31-0.51,8.59-1.54,12.96-1.5c81,3.19,162.03,6.1,243.06,8.5c29.34,0.73,58.68,1.72,88.04,1.81
		c3.28,0.07,6.56,0.38,9.82,0.81c-11.64-0.31-23.25,0.98-34.88,1.13c-73.63,2.99-147.34,3.18-221.01,2.86
		c-58.07-0.29-116.13-1.3-174.17-2.67C542.17,667.14,567.6,663.74,592.99,660.06z"/>
	<path d="M1273.8,669c0.6799-1.76,2.63-1.46,4.1499-1.46c43.4501,2.08,86.9501,3.95,130.4601,2.93
		c6.7999,13.42,18.4299,24.44,32.64,29.63c9.1899,3.52,19.12,4.92,28.95,4.48c78.54,4.97,157.24,9.06,235.98,7.94
		c28.04-1.05,56.05-2.73,83.99-5.31c21.72-2.14,43.4401-4.7,64.8101-9.22c9.1899-2.04,18.4099-4.28,27.13-7.94
		c4.51-1.99,9.2799-4.24,12.0299-8.56c4.5,5.77,6.51,12.95,8.5601,19.86c1.9,6.53,0.64,13.9901-3.86,19.19
		c-6.5,7.62-16.12,11.48-25.37,14.61c-19.3,6.11-39.48,8.7599-59.52,11.12c-52.03,5.48-104.38,7.03-156.64,8.79
		c-108.1,3.54-216.38,0.34-324.13-8.79c-17.37-1.57-34.73-3.17-52.04-5.22c-1.35-0.38-3.58-0.17-3.8099-2
		C1277.1801,715.68,1275.9301,692.27,1273.8,669z"/>
	<path d="M1198.04,785.95c29.2999-25.25,44.3199-64.07,45.97-102.13c2.6,10.51,2.49,21.44,3.1799,32.19
		c0.3401,14.3,0.8,28.64-0.0299,42.93c0.61,2.95,4.2899,3.75,6.85,4.32c12.46,1.89,25.12,1.72,37.6799,2.7
		c-3.5399,5.91-8.87,10.43-13.6899,15.25c-7.45,7.16-15.23,13.99-23.21,20.56c-9.15,7.45-21.6801,6.93-32.76,8.34
		c-23.8301,1.69-47.85,3.48-71.7001,1.28C1167.75,806.31,1184.29,797.87,1198.04,785.95z"/>
	<path d="M328.85,703.46c22.08,1.71,44.06,4.53,66.12,6.57c101.94,10.29,203.94,20.1,306.02,28.99
		c68.28,5.86,136.59,11.47,205.01,15.42c16.79,0.67,33.55,1.94,50.35,2.07c-27.11,0.39-54.23-0.35-81.34-0.55
		c-68.68-0.57-137.35-1.13-206.03-1.41c-4.92-0.11-9.84,0.16-14.74-0.2C545.76,737.47,437.34,720.24,328.85,703.46z"/>
	<path d="M1716.04,771.41c21.25-0.59,42.48-1.56,63.6599-3.35c-3.6399,6.65-9.84,11.34-15.5199,16.14
		c-26.3501,20.54-58.5701,34.4-92.12,36.35c-21.41,1.22-43.0701-3-62.4501-12.17c-18.7-8.71-35.28-21.54-49.5499-36.35
		C1612.05,772.67,1664.0601,772.78,1716.04,771.41z"/>
</g>
</svg>
